<?xml version="1.0" encoding="utf-8"?>
<svg version="1.1" xmlns="http://www.w3.org/2000/svg" viewBox="0 0 1000 1000">
<g><path d="M676.8,697c57.2-50.9,96.5-121.1,107.6-200.2c-23.7-2.8-46.9-7.4-69.3-13.8c-15.7,126.5-120,224.3-252.3,224.3c-143.7,0-266-115.2-266-257.4c0-126.3,96.5-231.3,218.7-253.2c-7.9-23.5-13.8-47.9-17.6-73c-158.9,25.9-280.1,162.4-280.1,327c0,183,149.9,331.4,334.9,331.4c36.1,0,70.9-5.7,103.4-16.1l138.2,202.1c0,0,33.9,40.7,91.4,11.2c0,0,66.7-30.5,31.8-87.3L676.8,697z M882.2,268.1v-80.5H801c-2.9-8.8-6.6-17.3-11-25.3l55.5-55.3l-57.4-57.1l-55.6,55.3c-8.5-4.7-17.6-8.6-27.1-11.5V10h-82.6v82.5c-9.9,2.7-19.4,6.5-28.4,11.1l-53.4-53.1L485,106.4l51.8,51.5c-5.6,9.3-10.3,19.2-13.7,29.6h-77.7v80.5h75c3.1,12.3,7.7,23.9,13.6,34.8l-49.6,49.4l57.4,57.1l49.6-49.4c9.8,5.4,20.4,9.7,31.5,12.7v73h82.6v-74.1c11.2-3.5,21.7-8.4,31.5-14.3l51.1,50.9l56.2-55.9l-52.7-52.5c5.2-10,9.2-20.6,12-31.7L882.2,268.1L882.2,268.1z M662.5,330.5c-54.5,0-98.7-44-98.7-98.3c0-54.3,44.2-98.3,98.7-98.3c54.5,0,98.8,44,98.8,98.3C761.3,286.5,717.1,330.5,662.5,330.5z" fill="#000"/></g>
</svg>