<?xml version="1.0" encoding="utf-8"?>
<svg version="1.1" xmlns="http://www.w3.org/2000/svg" viewBox="0 0 1000 1000">
<g><g><path d="M640.3,552.9c70.5-49.1,105.8-115.8,105.8-200.1c0-67.5-24.2-125.4-72.5-173.7c-48.3-48.3-106.2-72.5-173.7-72.5c-67.5,0-125.4,24.2-173.7,72.5c-48.3,48.3-72.5,106.2-72.5,173.7c0,84.4,35.3,151.1,105.8,200.1l41.4,29.9v112.7h197.8V582.8L640.3,552.9z M500,10c95.1,0,176,33.4,242.7,100.1c66.7,66.7,100.1,147.6,100.1,242.7c0,119.6-49.1,213.2-147.2,280.7v112.7c0,13.8-4.6,25.3-13.8,34.5c-9.2,9.2-20.7,13.8-34.5,13.8H352.8c-13.8,0-25.3-4.6-34.5-13.8c-9.2-9.2-13.8-20.7-13.8-34.5V633.4c-98.2-67.5-147.2-161-147.2-280.7c0-95.1,33.4-176,100.1-242.7C324,43.4,404.9,10,500,10z M352.8,941.7v-48.3h294.5v48.3c0,13.8-4.6,25.3-13.8,34.5S612.7,990,598.9,990H401.1c-13.8,0-25.3-4.6-34.5-13.8S352.8,955.5,352.8,941.7z" fill="#000"/></g></g>
</svg>