<?xml version="1.0" encoding="UTF-8" standalone="no"?>
<svg
   version="1.1"
   viewBox="0 0 1000 1000"
   xmlns="http://www.w3.org/2000/svg">
<g
   id="g856"
   transform="matrix(0.91965291,0,0,0.92233113,40.922456,38.647205)"><path
     d="M 418.3,372 629.8,500.5 418.3,628.2 V 372 M 377.5,255 c -22.6,0 -40.8,18.3 -40.8,40.8 v 408.3 c 0,22.6 18.3,40.8 40.8,40.8 10.6,0 20.2,-4 27.5,-10.6 6.2,-3.5 12.1,-8 17.5,-13.3 L 692.1,558.2 c 31.9,-31.9 31.9,-83.6 0,-115.5 L 422.4,278.9 c -5.3,-5.3 -11.2,-9.7 -17.5,-13.3 C 397.7,259 388.1,255 377.5,255 Z"
     id="path852" fill="#000"/><path
     d="m 500,91.7 c 55.2,0 108.6,10.8 158.9,32.1 48.6,20.6 92.3,50 129.8,87.5 37.5,37.5 67,81.2 87.5,129.8 21.3,50.3 32.1,103.8 32.1,158.9 0,55.2 -10.8,108.6 -32.1,158.9 -20.6,48.6 -50,92.3 -87.5,129.8 -37.5,37.5 -81.2,67 -129.8,87.5 -50.3,21.3 -103.8,32.1 -158.9,32.1 -55.2,0 -108.6,-10.8 -158.9,-32.1 -48.6,-20.6 -92.3,-50 -129.8,-87.5 -37.5,-37.5 -67,-81.2 -87.5,-129.8 C 102.4,608.6 91.7,555.2 91.7,500 c 0,-55.2 10.8,-108.6 32.1,-158.9 20.6,-48.6 50,-92.3 87.5,-129.8 37.5,-37.5 81.2,-67 129.8,-87.5 C 391.4,102.4 444.8,91.7 500,91.7 M 500,10 C 229.4,10 10,229.4 10,500 10,770.6 229.4,990 500,990 770.6,990 990,770.6 990,500 990,229.4 770.6,10 500,10 Z"
     id="path854" fill="#000"/></g>
</svg>
