<?xml version="1.0" encoding="utf-8"?>
<svg version="1.1" xmlns="http://www.w3.org/2000/svg" viewBox="0 0 1000 1000">
<g><g><rect x="187.7" y="173.2" width="261.1" height="55.2"/><path d="M800.8,235.3c9.1,0,17.9-3.7,24.4-10.1c6.4-6.4,10.1-15.3,10.1-24.4c0-9.1-3.7-18-10.1-24.4c-6.4-6.4-15.3-10.1-24.4-10.1c-9.1,0-18,3.7-24.4,10.1c-6.4,6.4-10.1,15.3-10.1,24.4c0,9.1,3.7,17.9,10.1,24.4C782.8,231.6,791.6,235.3,800.8,235.3z"/><path d="M676.5,235.3c9.1,0,17.9-3.7,24.4-10.1c6.4-6.4,10.1-15.3,10.1-24.4c0-9.1-3.7-18-10.1-24.4c-6.4-6.4-15.3-10.1-24.4-10.1c-9.1,0-18,3.7-24.4,10.1c-6.4,6.4-10.1,15.3-10.1,24.4c0,9.1,3.7,17.9,10.1,24.4C658.5,231.6,667.4,235.3,676.5,235.3z"/><path d="M552.3,235.3c9.1,0,17.9-3.7,24.4-10.1c6.4-6.4,10.1-15.3,10.1-24.4c0-9.1-3.7-18-10.1-24.4c-6.4-6.4-15.3-10.1-24.4-10.1c-9.1,0-18,3.7-24.4,10.1c-6.4,6.4-10.1,15.3-10.1,24.4c0,9.1,3.7,17.9,10.1,24.4C534.3,231.6,543.2,235.3,552.3,235.3z"/><path d="M10,59.1v881.7h980V59.1H10z M921,128.2v145.3H79V128.2H921z M79,871.8V342.5h842v529.4L79,871.8L79,871.8z"/><path d="M627.6,581c0-84.8-69-153.7-153.7-153.7c-84.8,0-153.7,69-153.7,153.7c0,84.8,69,153.7,153.7,153.7c32.4,0,62.5-10.1,87.4-27.3l71.5,71.5l39-39l-71.5-71.5C617.5,643.6,627.6,613.5,627.6,581z M473.9,679.5c-54.3,0-98.5-44.2-98.5-98.5c0-54.3,44.2-98.5,98.5-98.5c54.3,0,98.5,44.2,98.5,98.5C572.4,635.4,528.2,679.5,473.9,679.5z" fill="#000"/></g></g>
</svg>