<?xml version="1.0" encoding="utf-8"?>
<svg version="1.1" xmlns="http://www.w3.org/2000/svg" viewBox="0 0 1000 1000">
<g><path d="M981.5,946.5c-11.4,11.3-29.8,11.3-41.1,0l-82.2-82.2c-9.2-9.2-10.6-22.9-4.9-33.8c-48.1,54.4-117.6,89.4-195.9,89.4c-144.9,0-262.4-117.5-262.4-262.5c0-144.9,117.5-262.4,262.4-262.4s262.4,117.5,262.4,262.4c0,62.4-22.7,119-59.1,164c11.4-9.2,27.9-8.9,38.5,1.7l82.2,82.2C992.8,916.7,992.8,935.1,981.5,946.5L981.5,946.5z M657.4,464.9c-106.3,0-192.4,86.2-192.4,192.4c0,106.3,86.1,192.5,192.4,192.5c106.3,0,192.4-86.2,192.4-192.5C849.8,551.1,763.7,464.9,657.4,464.9L657.4,464.9z M184.5,219.4h594.3V289H184.5V219.4L184.5,219.4z M184.5,395.9h174.9v68.5H184.5V395.9L184.5,395.9z M885.7,267.8c0-84.6-67.3-153.4-150.2-153.4H230c-82.8,0-150.2,71-150.2,155.6v461c0,84.6,67.3,153.5,150.2,153.5h234.8v70.6H196.1C93.5,955.1,10,869.7,10,764.9V235.1C10,130.2,93.5,44.9,196.1,44.9h572.2c102.6,0,186.1,85.3,186.1,190.2v228.8h-68.7L885.7,267.8L885.7,267.8z" fill="#000"/></g>
</svg>